<svg width="72" height="72" viewBox="0 0 72 72" fill="none" xmlns="http://www.w3.org/2000/svg">
<path d="M18.72 15.1201H14.4C14.1136 15.1201 13.8389 15.2339 13.6363 15.4364C13.4338 15.639 13.32 15.9137 13.32 16.2001C13.32 16.4866 13.4338 16.7613 13.6363 16.9638C13.8389 17.1663 14.1136 17.2801 14.4 17.2801H18.72C19.0064 17.2801 19.2811 17.1663 19.4837 16.9638C19.6862 16.7613 19.8 16.4866 19.8 16.2001C19.8 15.9137 19.6862 15.639 19.4837 15.4364C19.2811 15.2339 19.0064 15.1201 18.72 15.1201Z" fill="#F49422"/>
<path d="M28.8 15.1201H24.48C24.1936 15.1201 23.9189 15.2339 23.7163 15.4364C23.5138 15.639 23.4 15.9137 23.4 16.2001C23.4 16.4866 23.5138 16.7613 23.7163 16.9638C23.9189 17.1663 24.1936 17.2801 24.48 17.2801H28.8C29.0865 17.2801 29.3612 17.1663 29.5637 16.9638C29.7662 16.7613 29.88 16.4866 29.88 16.2001C29.88 15.9137 29.7662 15.639 29.5637 15.4364C29.3612 15.2339 29.0865 15.1201 28.8 15.1201Z" fill="#F49422"/>
<path d="M62.2368 19.4401H60.48V13.7233C60.4781 12.7576 60.0937 11.8321 59.4108 11.1492C58.728 10.4664 57.8025 10.082 56.8368 10.0801H12.2832C11.3176 10.082 10.392 10.4664 9.70919 11.1492C9.02636 11.8321 8.64192 12.7576 8.64001 13.7233V42.4369C8.64192 43.4025 9.02636 44.3281 9.70919 45.0109C10.392 45.6937 11.3176 46.0782 12.2832 46.0801H15.12V54.3169C15.1219 55.1871 15.4684 56.021 16.0837 56.6364C16.6991 57.2517 17.533 57.5982 18.4032 57.6001H28.3968C29.267 57.5982 30.101 57.2517 30.7163 56.6364C31.3316 56.021 31.6781 55.1871 31.68 54.3169V46.0801H36.72V54.3169C36.7219 55.1871 37.0684 56.021 37.6837 56.6364C38.2991 57.2517 39.133 57.5982 40.0032 57.6001H62.2368C63.107 57.5982 63.941 57.2517 64.5563 56.6364C65.1716 56.021 65.5181 55.1871 65.52 54.3169V22.7233C65.5181 21.8531 65.1716 21.0191 64.5563 20.4038C63.941 19.7885 63.107 19.442 62.2368 19.4401ZM28.3968 55.4401H18.4032C18.1059 55.4382 17.8213 55.3193 17.6111 55.109C17.4008 54.8988 17.2819 54.6142 17.28 54.3169V32.8033C17.2819 32.506 17.4008 32.2214 17.6111 32.0111C17.8213 31.8009 18.1059 31.682 18.4032 31.6801H28.3968C28.6941 31.682 28.9787 31.8009 29.189 32.0111C29.3992 32.2214 29.5181 32.506 29.52 32.8033V44.9929V54.3169C29.5181 54.6142 29.3992 54.8988 29.189 55.109C28.9787 55.3193 28.6941 55.4382 28.3968 55.4401ZM31.68 43.9201V32.8033C31.6781 31.9331 31.3316 31.0991 30.7163 30.4838C30.101 29.8685 29.267 29.522 28.3968 29.5201H18.4032C17.533 29.522 16.6991 29.8685 16.0837 30.4838C15.4684 31.0991 15.1219 31.9331 15.12 32.8033V43.9201H12.2832C11.8898 43.9201 11.5126 43.7638 11.2344 43.4857C10.9563 43.2075 10.8 42.8302 10.8 42.4369V13.7233C10.8 13.3299 10.9563 12.9527 11.2344 12.6745C11.5126 12.3963 11.8898 12.2401 12.2832 12.2401H56.8368C57.2302 12.2401 57.6074 12.3963 57.8856 12.6745C58.1638 12.9527 58.32 13.3299 58.32 13.7233V19.4401H40.0032C39.133 19.442 38.2991 19.7885 37.6837 20.4038C37.0684 21.0191 36.7219 21.8531 36.72 22.7233V43.9201H31.68ZM63.36 54.3169C63.3581 54.6142 63.2392 54.8988 63.029 55.109C62.8187 55.3193 62.5341 55.4382 62.2368 55.4401H40.0032C39.7059 55.4382 39.4213 55.3193 39.2111 55.109C39.0009 54.8988 38.8819 54.6142 38.88 54.3169V22.7233C38.8819 22.426 39.0009 22.1414 39.2111 21.9311C39.4213 21.7209 39.7059 21.602 40.0032 21.6001H62.2368C62.5341 21.602 62.8187 21.7209 63.029 21.9311C63.2392 22.1414 63.3581 22.426 63.36 22.7233V54.3169Z" fill="#F49422"/>
<path d="M51.1245 52.9213C52.1186 52.9179 52.9217 52.1092 52.9182 51.1151C52.9147 50.121 52.106 49.3179 51.1119 49.3214C50.1178 49.3248 49.3148 50.1335 49.3182 51.1276C49.3217 52.1217 50.1304 52.9248 51.1245 52.9213Z" fill="#F49422"/>
</svg>
