<svg width="72" height="72" viewBox="0 0 72 72" fill="none" xmlns="http://www.w3.org/2000/svg">
<path d="M45.1848 48.8394C44.5907 48.8394 44.1086 49.3215 44.1086 49.9156V59.7528H8.9792V13.4051H44.1078V21.5842C44.1078 22.179 44.59 22.6604 45.184 22.6604C45.7781 22.6604 46.2602 22.179 46.2602 21.5842V12.3289C46.2602 11.7341 45.7781 11.2527 45.184 11.2527H7.903C7.30822 11.2527 6.8268 11.7341 6.8268 12.3289V60.8282C6.8268 61.4223 7.30822 61.9044 7.903 61.9044H45.184C45.7781 61.9044 46.2602 61.4223 46.2602 60.8282V49.9156C46.261 49.3208 45.7788 48.8394 45.1848 48.8394Z" fill="#F49422"/>
<path d="M64.8083 14.1205C64.7509 13.8407 64.5845 13.5953 64.3463 13.4382L58.943 9.87522C58.7048 9.71881 58.4157 9.66356 58.133 9.71953C57.8532 9.77692 57.6086 9.94338 57.4514 10.1823L53.496 16.1925C53.4551 16.2549 53.4214 16.3202 53.3949 16.387L32.4707 48.137C32.4269 48.2038 32.3925 48.2755 32.3645 48.3494C32.2432 48.4922 32.1543 48.6658 32.1213 48.8638L30.7631 56.9805C30.6913 57.4081 30.8836 57.8358 31.2495 58.0682C31.4253 58.1787 31.6248 58.234 31.8242 58.234C32.0402 58.234 32.2561 58.1687 32.4405 58.0395L39.1797 53.3308C39.2443 53.2856 39.3017 53.2339 39.3533 53.178C39.4724 53.0998 39.5815 53.0036 39.6647 52.8773L60.6004 21.1115C60.642 21.0476 60.6757 20.9802 60.703 20.9106L64.6512 14.9305C64.8091 14.6916 64.8657 14.401 64.8083 14.1205ZM34.0369 50.458L36.8659 52.322L33.3087 54.8073L34.0369 50.458ZM38.4601 50.7945L34.8598 48.4226L54.611 18.4533L58.2112 20.8259L38.4601 50.7945ZM59.375 19.015L55.7761 16.6431L58.6575 12.2651L62.262 14.6421L59.375 19.015Z" fill="#F49422"/>
<path d="M33.5352 24.8502C34.1299 24.8502 34.6114 24.3687 34.6114 23.774C34.6114 23.1792 34.1299 22.6978 33.5352 22.6978H13.5135C12.9187 22.6978 12.4373 23.1792 12.4373 23.774C12.4373 24.3687 12.9187 24.8502 13.5135 24.8502H33.5352Z" fill="#F49422"/>
<path d="M13.764 33.7151H33.7806C34.3754 33.7151 34.8568 33.2337 34.8568 32.6389C34.8568 32.0442 34.3754 31.5627 33.7806 31.5627H13.764C13.1692 31.5627 12.6878 32.0442 12.6878 32.6389C12.6878 33.2337 13.1692 33.7151 13.764 33.7151Z" fill="#F49422"/>
</svg>
