<svg width="72" height="72" viewBox="0 0 72 72" fill="none" xmlns="http://www.w3.org/2000/svg">
<path d="M62.8055 8.29761H19.0367C16.4232 8.29761 14.3291 10.1352 14.2689 12.5087V21.6889C14.2689 22.2828 14.7496 22.7635 15.3435 22.7635C15.9375 22.7635 16.4182 22.2828 16.4182 21.6889V12.5359C16.4475 11.3839 17.6225 10.4469 19.0367 10.4469H62.8055C64.2512 10.4469 65.4269 11.4033 65.4269 12.5796V47.6454C65.4269 48.8225 64.2505 49.7796 62.8055 49.7796H19.0367C17.5931 49.7796 16.4182 48.8225 16.4182 47.6454V42.6255C16.4182 42.0323 15.9375 41.5509 15.3435 41.5509C14.7496 41.5509 14.2689 42.0323 14.2689 42.6255V47.6454C14.2689 50.0075 16.4074 51.9289 19.0367 51.9289H39.6824V61.1958H26.0411C25.4472 61.1958 24.9665 61.6772 24.9665 62.2704C24.9665 62.8636 25.4472 63.345 26.0411 63.345H55.3526C55.9458 63.345 56.4272 62.8636 56.4272 62.2704C56.4272 61.6772 55.9458 61.1958 55.3526 61.1958H41.8317V51.9282H62.8055C65.4362 51.9282 67.5761 50.0067 67.5761 47.6447V12.5796C67.5761 10.2183 65.4362 8.29761 62.8055 8.29761Z" fill="#F49422"/>
<path d="M33.7641 25.8319H56.7976C57.3908 25.8319 57.8722 25.3512 57.8722 24.7572C57.8722 24.1633 57.3908 23.6826 56.7976 23.6826H33.7641C33.1702 23.6826 32.6895 24.1633 32.6895 24.7572C32.6895 25.3512 33.1702 25.8319 33.7641 25.8319Z" fill="#F49422"/>
<path d="M33.7641 32.637H56.7976C57.3908 32.637 57.8722 32.1563 57.8722 31.5624C57.8722 30.9685 57.3908 30.4878 56.7976 30.4878H33.7641C33.1702 30.4878 32.6895 30.9685 32.6895 31.5624C32.6895 32.1563 33.1702 32.637 33.7641 32.637Z" fill="#F49422"/>
<path d="M33.7641 39.8184H56.7976C57.3908 39.8184 57.8722 39.337 57.8722 38.7438C57.8722 38.1506 57.3908 37.6692 56.7976 37.6692H33.7641C33.1702 37.6692 32.6895 38.1506 32.6895 38.7438C32.6895 39.337 33.1702 39.8184 33.7641 39.8184Z" fill="#F49422"/>
<path d="M15.1244 34.9075C15.4016 34.9075 15.6767 34.8008 15.8845 34.593L31.4107 19.0661C31.8305 18.6463 31.8305 17.9657 31.4107 17.5466C30.9909 17.1267 30.311 17.1267 29.8912 17.5466L15.0076 32.4309L5.76366 25.8498C5.27936 25.506 4.60951 25.6192 4.26492 26.102C3.92104 26.5856 4.03351 27.2569 4.51781 27.6008L14.5025 34.7083C14.6895 34.8423 14.908 34.9075 15.1244 34.9075Z" fill="#F49422"/>
</svg>
