<svg width="72" height="72" viewBox="0 0 72 72" fill="none" xmlns="http://www.w3.org/2000/svg">
<path d="M35.9527 38.4424C26.4666 38.4424 18.7488 47.2007 18.7488 57.9667C18.7488 58.6994 19.2719 59.294 19.9183 59.294H51.9864C52.6319 59.294 53.1559 58.6994 53.1559 57.9667C53.1559 47.2007 45.438 38.4424 35.9527 38.4424ZM21.1338 56.6394C21.7325 47.9555 28.1507 41.097 35.9527 41.097C43.7548 41.097 50.1729 47.9555 50.7709 56.6394H21.1338Z" fill="#F49422"/>
<path d="M35.6722 36.6895C41.2413 36.6895 45.7718 31.5476 45.7718 25.2271C45.7718 18.9065 41.2405 13.7646 35.6722 13.7646C30.1031 13.7646 25.5725 18.9065 25.5725 25.2271C25.5725 31.5476 30.1031 36.6895 35.6722 36.6895ZM35.6722 16.4192C39.9509 16.4192 43.4329 20.3701 43.4329 25.2271C43.4329 30.0832 39.9509 34.0349 35.6722 34.0349C31.3926 34.0349 27.9115 30.084 27.9115 25.2271C27.9115 20.3701 31.3926 16.4192 35.6722 16.4192Z" fill="#F49422"/>
<path d="M13.0889 45.7659C15.0076 45.7659 16.8921 46.3464 18.5387 47.4454C19.0954 47.8188 19.8127 47.6055 20.1393 46.9746C20.4668 46.3428 20.2812 45.5288 19.7238 45.1571C17.7185 43.8183 15.424 43.1113 13.0889 43.1113C5.8716 43.1113 0 49.7752 0 57.9663C0 58.6989 0.52315 59.2936 1.16949 59.2936H15.9923C16.6387 59.2936 17.1618 58.6989 17.1618 57.9663C17.1618 57.2336 16.6387 56.639 15.9923 56.639H2.40212C2.98687 50.5335 7.55644 45.7659 13.0889 45.7659Z" fill="#F49422"/>
<path d="M12.8796 40.9941C17.1841 40.9941 20.6871 37.0193 20.6871 32.1332C20.6871 27.247 17.1849 23.2722 12.8796 23.2722C8.57438 23.2722 5.07215 27.247 5.07215 32.1332C5.07215 37.0185 8.57438 40.9941 12.8796 40.9941ZM12.8796 25.9268C15.8946 25.9268 18.3482 28.7105 18.3482 32.1332C18.3482 35.5549 15.8954 38.3395 12.8796 38.3395C9.86393 38.3395 7.41113 35.5558 7.41113 32.1332C7.41113 28.7105 9.86393 25.9268 12.8796 25.9268Z" fill="#F49422"/>
<path d="M58.9111 43.1113C56.5768 43.1113 54.2823 43.8192 52.2762 45.1571C51.7187 45.5288 51.5332 46.3419 51.8606 46.9737C52.1881 47.6073 52.9069 47.817 53.4613 47.4454C55.1087 46.3464 56.9931 45.7659 58.9111 45.7659C64.4435 45.7659 69.0131 50.5335 69.5979 56.639H56.01C55.3644 56.639 54.8405 57.2336 54.8405 57.9663C54.8405 58.6989 55.3644 59.2936 56.01 59.2936H70.8305C71.4761 59.2936 72 58.6989 72 57.9663C72 49.7752 66.1284 43.1113 58.9111 43.1113Z" fill="#F49422"/>
<path d="M59.1196 40.9941C63.4241 40.9941 66.9271 37.0193 66.9271 32.1332C66.9271 27.247 63.4249 23.2722 59.1196 23.2722C54.8144 23.2722 51.3114 27.247 51.3114 32.1332C51.3121 37.0185 54.8144 40.9941 59.1196 40.9941ZM59.1196 25.9268C62.1346 25.9268 64.5881 28.7105 64.5881 32.1332C64.5881 35.5549 62.1353 38.3395 59.1196 38.3395C56.1039 38.3395 53.6503 35.5558 53.6503 32.1332C53.6511 28.7105 56.1039 25.9268 59.1196 25.9268Z" fill="#F49422"/>
</svg>
