<svg width="14" height="15" viewBox="0 0 14 15" fill="none" xmlns="http://www.w3.org/2000/svg">
<g clip-path="url(#clip0_1_714)">
<path d="M4.9451 14.3604C5.65809 14.7597 6.36031 14.9602 7.01446 14.9602C7.56207 14.96 8.07595 14.8194 8.53334 14.5371L10.2192 13.4971C10.28 13.4596 10.3234 13.3997 10.3399 13.3301C10.3564 13.2607 10.3444 13.1875 10.3069 13.1267L8.84561 10.7583C8.80813 10.6977 8.74804 10.6543 8.67862 10.6378C8.60867 10.6215 8.53585 10.6333 8.47522 10.6708L6.77662 11.7192C6.51546 11.8803 6.1804 11.9317 5.85808 11.8609C5.53576 11.7899 5.26061 11.603 5.10313 11.3475L2.7945 7.60609C2.46069 7.06511 2.62894 6.35338 3.16955 6.01957C3.16955 6.01957 3.16973 6.01957 3.16973 6.01939L4.93273 4.93098C5.05918 4.85296 5.09828 4.68722 5.02026 4.56077L3.55878 2.19292C3.48075 2.06647 3.31484 2.02683 3.18856 2.10521L1.427 3.19254C-0.536347 4.40436 -0.46747 7.58546 1.59489 10.9285C2.54033 12.4614 3.73025 13.6802 4.9451 14.3604ZM1.70986 3.65029L3.24237 2.70448L4.42135 4.6144L2.88723 5.56146C2.88687 5.56164 2.88669 5.56182 2.88651 5.562C2.09407 6.05186 1.84726 7.09525 2.33675 7.88841L4.64538 11.6297C4.87874 12.0083 5.27873 12.284 5.74257 12.3863C6.20013 12.4865 6.6803 12.4107 7.0593 12.1768L8.52885 11.2697L9.70765 13.18L8.25066 14.0788C7.18665 14.7353 6.00875 14.3389 5.20806 13.8906C4.07177 13.2542 2.95108 12.102 2.05281 10.6458C0.156906 7.57255 0.0159236 4.69583 1.70986 3.65029Z" fill="white"/>
<path d="M6.75028 5.01811C7.62092 5.06959 8.39148 5.51694 8.86465 6.24571C9.31702 6.94023 9.42589 7.79133 9.16312 8.58091C9.11612 8.7219 9.19236 8.87436 9.33334 8.92099C9.3615 8.9305 9.39002 8.93481 9.41836 8.93481C9.53118 8.93481 9.63611 8.8636 9.6736 8.75077C9.98856 7.80478 9.85799 6.78453 9.31576 5.95226C8.75721 5.09165 7.8098 4.54153 6.78202 4.48072C6.63225 4.47445 6.50634 4.58512 6.49755 4.73345C6.48876 4.88197 6.60194 5.00932 6.75028 5.01811Z" fill="white"/>
<path d="M7.12706 3.02069C8.53688 3.18266 9.78832 3.95628 10.5605 5.1428C11.3086 6.29309 11.5207 7.70939 11.142 9.02864C11.1009 9.1716 11.1834 9.32048 11.3262 9.36137C11.3511 9.36855 11.3759 9.37195 11.4007 9.37195C11.5174 9.37195 11.6252 9.29501 11.6589 9.17716C12.0806 7.70795 11.8446 6.1304 11.0114 4.84935C10.1515 3.52795 8.75822 2.66662 7.1884 2.48617C7.04365 2.46913 6.90751 2.57514 6.89047 2.72276C6.87343 2.87038 6.97926 3.00365 7.12706 3.02069Z" fill="white"/>
<path d="M7.49438 1.26187C9.36679 1.52214 11.0317 2.58041 12.0623 4.16549C13.072 5.71649 13.3747 7.63215 12.8933 9.42117C12.8546 9.56467 12.9398 9.71229 13.0833 9.75085C13.1066 9.75713 13.1303 9.76018 13.1534 9.76018C13.272 9.76018 13.3808 9.68126 13.4129 9.56108C13.9342 7.62462 13.6063 5.55094 12.5134 3.87205C11.3978 2.15638 9.59549 1.01076 7.56882 0.728968C7.42228 0.709417 7.2856 0.811119 7.26533 0.958381C7.24471 1.10546 7.3473 1.24142 7.49438 1.26187Z" fill="white"/>
</g>
<defs>
<clipPath id="clip0_1_714">
<rect width="13.6554" height="14.2336" fill="white" transform="translate(0 0.726562)"/>
</clipPath>
</defs>
</svg>
