<svg width="72" height="72" viewBox="0 0 72 72" fill="none" xmlns="http://www.w3.org/2000/svg">
<path d="M36.3675 18.8135C26.803 18.8135 19.0216 26.6159 19.0216 36.207C19.0216 41.7287 21.6285 46.883 26.0271 50.1596V61.9082C26.0271 62.5022 26.5074 62.9844 27.1008 62.9844H28.8258C29.3498 66.6915 32.5272 69.5542 36.3675 69.5542C40.2092 69.5542 43.3888 66.6915 43.9134 62.9844H45.4338C46.0265 62.9844 46.5075 62.5022 46.5075 61.9082V50.3103C51.0285 47.0372 53.7184 41.8054 53.7184 36.207C53.7184 26.6159 45.9349 18.8135 36.3675 18.8135ZM36.3675 67.4025C33.714 67.4025 31.4958 65.5005 30.9961 62.9851H41.7439C41.2428 65.4998 39.0231 67.4025 36.3675 67.4025ZM44.3601 60.832H28.1745V50.6812H44.3601V60.832ZM39.4669 37.1541V48.5288H33.0627V37.1541H39.4669ZM45.3021 48.5288H41.6143V37.1541H45.0036C45.5963 37.1541 46.0773 36.672 46.0773 36.0779C46.0773 35.4831 45.5963 35.0017 45.0036 35.0017H27.5302C26.9368 35.0017 26.4565 35.4831 26.4565 36.0779C26.4565 36.672 26.9368 37.1541 27.5302 37.1541H30.9145V48.5288H27.4386C23.5053 45.6625 21.1682 41.0994 21.1682 36.207C21.1682 27.8033 27.9862 20.9659 36.3668 20.9659C44.7495 20.9659 51.5703 27.8026 51.5703 36.207C51.571 41.0916 49.234 45.6575 45.3021 48.5288Z" fill="#F49422"/>
<path d="M36.2645 15.1974C36.8571 15.1974 37.3382 14.716 37.3382 14.1212V3.2681C37.3382 2.67331 36.8571 2.19189 36.2645 2.19189C35.6711 2.19189 35.1908 2.67331 35.1908 3.2681V14.1212C35.1908 14.716 35.6711 15.1974 36.2645 15.1974Z" fill="#F49422"/>
<path d="M12.6181 35.0017H1.79021C1.19681 35.0017 0.716513 35.4831 0.716513 36.0779C0.716513 36.672 1.19681 37.1541 1.79021 37.1541H12.6181C13.2115 37.1541 13.6918 36.672 13.6918 36.0779C13.6918 35.4838 13.2115 35.0017 12.6181 35.0017Z" fill="#F49422"/>
<path d="M69.7904 35.0017H58.9675C58.3748 35.0017 57.8938 35.4831 57.8938 36.0779C57.8938 36.672 58.3748 37.1541 58.9675 37.1541H69.7904C70.383 37.1541 70.8641 36.672 70.8641 36.0779C70.8641 35.4838 70.383 35.0017 69.7904 35.0017Z" fill="#F49422"/>
<path d="M19.1742 20.6995C19.3775 20.8782 19.6294 20.965 19.8799 20.965C20.1791 20.965 20.4769 20.8402 20.6888 20.5962C21.0789 20.1485 21.0324 19.4691 20.5857 19.0781L12.4306 11.9421C11.9847 11.5511 11.3054 11.5977 10.916 12.0454C10.5259 12.4931 10.5724 13.1726 11.0191 13.5636L19.1742 20.6995Z" fill="#F49422"/>
<path d="M50.8081 20.965C51.0586 20.965 51.3099 20.8775 51.5132 20.6996L59.6725 13.5636C60.1192 13.1726 60.165 12.4932 59.7756 12.0448C59.3869 11.5971 58.7076 11.5497 58.261 11.9414L50.1016 19.0774C49.6549 19.4684 49.6091 20.1478 49.9985 20.5963C50.2104 20.8409 50.5082 20.965 50.8081 20.965Z" fill="#F49422"/>
</svg>
