<svg width="16" height="11" viewBox="0 0 16 11" fill="none" xmlns="http://www.w3.org/2000/svg">
<path d="M15.9853 9.98303C15.9941 9.95676 16 9.92903 16 9.89985V0.271663C16 0.242304 15.9941 0.214395 15.9852 0.187935C15.9839 0.184311 15.9831 0.180686 15.9816 0.177061C15.9697 0.146071 15.9523 0.118162 15.9304 0.0936958C15.9289 0.0920647 15.9287 0.0900713 15.9272 0.0884402C15.9263 0.0875341 15.9252 0.0871714 15.9243 0.0862653C15.9009 0.0619805 15.8732 0.0424077 15.8422 0.0277281C15.8398 0.0266407 15.838 0.0251908 15.8356 0.0241034C15.8062 0.0112361 15.7743 0.00398709 15.7407 0.00181234C15.7374 0.00163111 15.7342 0.000905996 15.7309 0.000905996C15.7277 0.000724766 15.7249 0 15.7218 0H0.278592C0.275436 0 0.272467 0.000724766 0.269311 0.000905996C0.266342 0.00108723 0.263372 0.00163111 0.260402 0.00181234C0.226437 0.00398709 0.193956 0.0114175 0.16426 0.024466C0.162404 0.025191 0.160919 0.0264595 0.159063 0.0271844C0.12751 0.041864 0.0994838 0.0617992 0.0759121 0.0864464C0.074984 0.0873525 0.0738704 0.0875341 0.0729423 0.0884402C0.0714575 0.08989 0.071272 0.0918836 0.0697871 0.0935146C0.0478858 0.117981 0.0302535 0.146071 0.0183748 0.177061C0.01689 0.180686 0.0161475 0.184311 0.0148483 0.188116C0.00593932 0.214576 0 0.242485 0 0.271844V9.90021C0 9.92993 0.00612489 9.95821 0.0152195 9.98503C0.0165187 9.98865 0.0172612 9.99209 0.0185604 9.99572C0.0306247 10.0269 0.0484426 10.055 0.0705295 10.0794C0.0718287 10.0809 0.0722 10.0827 0.0734992 10.0842C0.0746128 10.0854 0.0760976 10.0862 0.0773969 10.0874C0.0864915 10.0967 0.0965141 10.1048 0.106908 10.1128C0.111548 10.1162 0.115631 10.1204 0.120457 10.1237C0.132707 10.132 0.145885 10.1387 0.159434 10.1449C0.162775 10.1463 0.165744 10.1487 0.169085 10.1499C0.20268 10.1639 0.239615 10.1719 0.278406 10.1719H15.7214C15.7602 10.1719 15.7971 10.1641 15.8307 10.1499C15.8359 10.1478 15.8408 10.1445 15.8458 10.142C15.8573 10.1364 15.8688 10.1306 15.8794 10.1235C15.8849 10.1197 15.8899 10.1148 15.8953 10.1106C15.9048 10.1032 15.9141 10.0958 15.9222 10.0872C15.9237 10.0858 15.9254 10.0847 15.9269 10.0833C15.9284 10.0816 15.9287 10.0794 15.9302 10.0778C15.9519 10.0535 15.9694 10.0256 15.9813 9.99481C15.9831 9.99083 15.984 9.98702 15.9853 9.98303ZM0.556998 0.888207L5.24294 5.06754L0.556998 9.28023V0.888207ZM10.1613 4.86275C10.142 4.87508 10.1215 4.88541 10.1054 4.90281C10.0993 4.90933 10.0972 4.91785 10.0919 4.92473L8.00009 6.79031L0.996137 0.543508H15.004L10.1613 4.86275ZM5.65573 5.43562L7.81226 7.35901C7.86553 7.40649 7.93272 7.43023 8.00009 7.43023C8.06747 7.43023 8.13465 7.40649 8.18774 7.35901L10.3175 5.45954L15.0027 9.62819H0.992054L5.65573 5.43562ZM10.7305 5.09128L15.4432 0.888207V9.28458L10.7305 5.09128Z" fill="white"/>
</svg>
