<svg width="54" height="54" viewBox="0 0 54 54" fill="none" xmlns="http://www.w3.org/2000/svg">
<path d="M50.0914 41.0166C50.1166 40.9385 50.1339 40.8562 50.1339 40.7696V12.1816C50.1339 12.0944 50.1166 12.0116 50.0908 11.933C50.0871 11.9223 50.0849 11.9115 50.0806 11.9007C50.0462 11.8087 49.9956 11.7258 49.9321 11.6532C49.9278 11.6484 49.9272 11.6424 49.9229 11.6376C49.9202 11.6349 49.917 11.6338 49.9143 11.6311C49.8465 11.559 49.7663 11.5009 49.6765 11.4573C49.6695 11.4541 49.6641 11.4498 49.6571 11.4466C49.5721 11.4084 49.4795 11.3868 49.3821 11.3804C49.3725 11.3798 49.3633 11.3777 49.3536 11.3777C49.3445 11.3772 49.3364 11.375 49.3273 11.375H4.55506C4.54591 11.375 4.5373 11.3772 4.52815 11.3777C4.51954 11.3782 4.51093 11.3798 4.50232 11.3804C4.40385 11.3868 4.30968 11.4089 4.22359 11.4476C4.21821 11.4498 4.2139 11.4536 4.20852 11.4557C4.11705 11.4993 4.03579 11.5585 3.96746 11.6317C3.96477 11.6344 3.96154 11.6349 3.95885 11.6376C3.95454 11.6419 3.954 11.6478 3.9497 11.6527C3.8862 11.7253 3.83508 11.8087 3.80065 11.9007C3.79634 11.9115 3.79419 11.9223 3.79042 11.9336C3.76459 12.0121 3.74738 12.095 3.74738 12.1822V40.7706C3.74738 40.8589 3.76513 40.9428 3.7915 41.0225C3.79527 41.0332 3.79742 41.0435 3.80118 41.0542C3.83616 41.1468 3.88782 41.2302 3.95185 41.3028C3.95562 41.3071 3.95669 41.3125 3.96046 41.3168C3.96369 41.3206 3.96799 41.3227 3.97176 41.3265C3.99813 41.3539 4.02718 41.3782 4.05732 41.4018C4.07077 41.4121 4.08261 41.4244 4.0966 41.4341C4.13211 41.4589 4.17032 41.4788 4.2096 41.4971C4.21928 41.5014 4.22789 41.5084 4.23758 41.5121C4.33498 41.5536 4.44206 41.5773 4.55452 41.5773H49.3262C49.4386 41.5773 49.5457 41.5541 49.6431 41.5121C49.6582 41.5057 49.6722 41.496 49.6867 41.4885C49.7201 41.4718 49.7534 41.4546 49.7841 41.4336C49.8002 41.4223 49.8148 41.4078 49.8304 41.3954C49.8578 41.3733 49.8847 41.3513 49.9084 41.326C49.9127 41.3217 49.9176 41.3184 49.9219 41.3141C49.9262 41.3093 49.9272 41.3028 49.9315 41.298C49.9945 41.2259 50.0451 41.143 50.0795 41.0515C50.0849 41.0397 50.0876 41.0284 50.0914 41.0166ZM5.3622 14.0123L18.9475 26.4215L5.3622 38.9298V14.0123ZM33.2065 25.8135C33.1505 25.85 33.0913 25.8807 33.0445 25.9324C33.0267 25.9517 33.0208 25.977 33.0052 25.9975L26.9409 31.5367L6.63533 12.9888H47.2464L33.2065 25.8135ZM20.1442 27.5144L26.3963 33.2253C26.5508 33.3663 26.7456 33.4368 26.9409 33.4368C27.1362 33.4368 27.331 33.3663 27.4849 33.2253L33.6595 27.5854L47.2427 39.9629H6.62349L20.1442 27.5144ZM34.8568 26.492L48.5196 14.0123V38.9427L34.8568 26.492Z" fill="#F49422"/>
</svg>
