<svg width="24" height="24" viewBox="0 0 24 24" fill="none" xmlns="http://www.w3.org/2000/svg">
<g id="Icons_mail 1">
<path id="Vector" d="M22.2629 18.2297C22.2741 18.195 22.2817 18.1584 22.2817 18.1199V5.41416C22.2817 5.37542 22.2741 5.33859 22.2626 5.30367C22.2609 5.29889 22.26 5.2941 22.2581 5.28932C22.2428 5.24843 22.2203 5.2116 22.1921 5.17931C22.1901 5.17716 22.1899 5.17453 22.188 5.17237C22.1868 5.17118 22.1854 5.1707 22.1842 5.1695C22.154 5.13746 22.1184 5.11163 22.0785 5.09226C22.0754 5.09082 22.073 5.08891 22.0699 5.08747C22.0321 5.07049 21.9909 5.06093 21.9476 5.05806C21.9433 5.05782 21.9393 5.05686 21.935 5.05686C21.9309 5.05662 21.9273 5.05566 21.9233 5.05566H2.0245C2.02043 5.05566 2.0166 5.05662 2.01254 5.05686C2.00871 5.0571 2.00489 5.05782 2.00106 5.05806C1.95729 5.06093 1.91544 5.07073 1.87718 5.08795C1.87479 5.08891 1.87287 5.09058 1.87048 5.09154C1.82983 5.11091 1.79371 5.13722 1.76334 5.16974C1.76215 5.17094 1.76071 5.17118 1.75951 5.17237C1.7576 5.17429 1.75736 5.17692 1.75545 5.17907C1.72723 5.21136 1.70451 5.24843 1.6892 5.28932C1.68729 5.2941 1.68633 5.29889 1.68466 5.30391C1.67318 5.33883 1.66553 5.37566 1.66553 5.4144V18.1204C1.66553 18.1596 1.67342 18.1969 1.68514 18.2323C1.68681 18.2371 1.68777 18.2416 1.68944 18.2464C1.70499 18.2876 1.72795 18.3246 1.75641 18.3569C1.75808 18.3588 1.75856 18.3612 1.76023 18.3631C1.76167 18.3648 1.76358 18.3658 1.76525 18.3674C1.77697 18.3796 1.78989 18.3904 1.80328 18.4009C1.80926 18.4055 1.81452 18.411 1.82074 18.4153C1.83652 18.4263 1.8535 18.4351 1.87096 18.4433C1.87526 18.4452 1.87909 18.4483 1.8834 18.45C1.92668 18.4684 1.97427 18.4789 2.02426 18.4789H21.9228C21.9728 18.4789 22.0204 18.4686 22.0636 18.45C22.0703 18.4471 22.0766 18.4428 22.083 18.4394C22.0978 18.432 22.1127 18.4244 22.1263 18.415C22.1335 18.41 22.1399 18.4036 22.1469 18.3981C22.1591 18.3883 22.171 18.3784 22.1815 18.3672C22.1835 18.3653 22.1856 18.3639 22.1875 18.3619C22.1894 18.3598 22.1899 18.3569 22.1918 18.3548C22.2198 18.3227 22.2423 18.2859 22.2576 18.2452C22.26 18.24 22.2612 18.235 22.2629 18.2297ZM2.38323 6.22778L8.42113 11.743L2.38323 17.3022V6.22778ZM14.7585 11.4728C14.7336 11.489 14.7073 11.5027 14.6865 11.5256C14.6786 11.5342 14.676 11.5455 14.669 11.5545L11.9738 14.0164L2.94906 5.7729H20.9984L14.7585 11.4728ZM8.95301 12.2287L11.7317 14.7669C11.8004 14.8296 11.8869 14.8609 11.9738 14.8609C12.0606 14.8609 12.1471 14.8296 12.2155 14.7669L14.9598 12.2603L20.9968 17.7614H2.9438L8.95301 12.2287ZM15.4919 11.7743L21.5643 6.22778V17.308L15.4919 11.7743Z" fill="#F49422"/>
</g>
</svg>
