<svg width="10" height="16" viewBox="0 0 10 16" fill="none" xmlns="http://www.w3.org/2000/svg">
<g clip-path="url(#clip0_1_708)">
<path d="M6.00416 11.3415L8.54911 7.24252C8.55757 7.22897 8.56473 7.21464 8.57049 7.19974C9.00972 6.4797 9.24326 5.65306 9.24575 4.80963C9.24823 3.96619 9.01957 3.1382 8.5846 2.41557C8.14963 1.69295 7.52497 1.10331 6.77848 0.710715C6.03198 0.318116 5.19219 0.137559 4.3503 0.188655C3.26158 0.261017 2.23298 0.713956 1.44452 1.4682C0.656069 2.22245 0.157979 3.22995 0.0374256 4.3144C-0.0705571 5.32539 0.160794 6.34359 0.695049 7.20866C0.700619 7.22161 0.707173 7.23412 0.714653 7.24608L3.15446 11.3291C1.19406 11.5768 0 12.3378 0 13.3483C0 14.5459 2.03168 15.4869 4.63366 15.4869C7.23564 15.4869 9.26733 14.5477 9.26733 13.3483C9.25129 12.3663 7.98594 11.5928 6.00416 11.3415ZM1.17446 6.96628C0.685992 6.19364 0.47308 5.27856 0.570297 4.36965C0.676909 3.41118 1.11719 2.52073 1.81409 1.85413C2.51099 1.18753 3.42012 0.787237 4.38238 0.723308C5.13077 0.677361 5.87735 0.838566 6.54011 1.18922C7.20287 1.53987 7.75617 2.06639 8.13923 2.71096C8.52229 3.35554 8.72029 4.09321 8.71148 4.84296C8.70267 5.59272 8.4874 6.32554 8.08931 6.96093C8.08089 6.97451 8.07373 6.98883 8.06792 7.00371L4.56238 12.6443L1.19941 7.01974C1.19319 7.00102 1.18481 6.98308 1.17446 6.96628ZM4.62475 14.9504C2.21346 14.9504 0.525742 14.1057 0.525742 13.3465C0.525742 12.6336 1.72515 12.0045 3.44495 11.8298L4.32 13.293C4.34346 13.3322 4.37658 13.3648 4.41621 13.3876C4.45583 13.4103 4.50064 13.4226 4.54634 13.4231C4.59227 13.4243 4.63771 13.4135 4.6783 13.392C4.71888 13.3705 4.75322 13.3388 4.77802 13.3001L5.68337 11.8459C7.44416 12.0241 8.71307 12.6479 8.71307 13.35C8.71663 14.1057 7.03604 14.9504 4.62475 14.9504Z" fill="white"/>
<path d="M6.39434 4.71328C6.39434 4.37984 6.29547 4.05388 6.11021 3.77663C5.92496 3.49938 5.66165 3.28328 5.35358 3.15568C5.04552 3.02807 4.70653 2.99469 4.37949 3.05974C4.05245 3.12479 3.75205 3.28536 3.51626 3.52115C3.28048 3.75693 3.11991 4.05733 3.05486 4.38437C2.9898 4.71141 3.02319 5.0504 3.1508 5.35847C3.2784 5.66653 3.49449 5.92984 3.77174 6.11509C4.049 6.30035 4.37496 6.39923 4.7084 6.39923C5.1554 6.39875 5.58395 6.22098 5.90002 5.9049C6.21609 5.58883 6.39387 5.16028 6.39434 4.71328ZM3.55712 4.71328C3.55712 4.48558 3.62464 4.26299 3.75114 4.07366C3.87765 3.88434 4.05745 3.73677 4.26782 3.64963C4.47819 3.5625 4.70968 3.5397 4.93301 3.58412C5.15634 3.62854 5.36148 3.73819 5.52249 3.8992C5.6835 4.06021 5.79315 4.26535 5.83757 4.48868C5.88199 4.71201 5.85919 4.94349 5.77205 5.15386C5.68492 5.36423 5.53735 5.54404 5.34802 5.67054C5.1587 5.79705 4.93611 5.86457 4.7084 5.86457C4.40352 5.86363 4.11141 5.74197 3.89599 5.52622C3.68057 5.31046 3.55937 5.01817 3.5589 4.71328H3.55712Z" fill="white"/>
</g>
<defs>
<clipPath id="clip0_1_708">
<rect width="9.26733" height="15.3067" fill="white" transform="translate(0 0.180176)"/>
</clipPath>
</defs>
</svg>
